{
  "accessors": [
    {
      "bufferView": 2,
      "componentType": 5126,
      "count": 1235,
      "max": [
        2.8498027324676514,
        1.277038812637329,
        3.9818801879882813
      ],
      "min": [
        -2.482140064239502,
        -0.5566773414611816,
        -4.012052536010742
      ],
      "type": "VEC3"
    },
    {
      "bufferView": 2,
      "byteOffset": 14820,
      "componentType": 5126,
      "count": 1235,
      "max": [
        0.9999775290489197,
        0.9999998807907104,
        0.9999791979789734
      ],
      "min": [
        -0.9994737505912781,
        -1.0,
        -0.9999983906745911
      ],
      "type": "VEC3"
    },
    {
      "bufferView": 1,
      "componentType": 5126,
      "count": 1235,
      "max": [
        0.9956485629081726,
        0.9852370619773865
      ],
      "min": [
        0.005173360463231802,
        0.004182193428277969
      ],
      "type": "VEC2"
    },
    {
      "bufferView": 0,
      "componentType": 5125,
      "count": 5952,
      "type": "SCALAR"
    },
    {
      "bufferView": 2,
      "byteOffset": 29640,
      "componentType": 5126,
      "count": 330,
      "max": [
        2.1723875999450684,
        0.9661109447479248,
        2.929394006729126
      ],
      "min": [
        -1.9431403875350952,
        0.3483991324901581,
        -3.0281243324279785
      ],
      "type": "VEC3"
    },
    {
      "bufferView": 2,
      "byteOffset": 33600,
      "componentType": 5126,
      "count": 330,
      "max": [
        0.9891257882118225,
        0.9998320937156677,
        1.0
      ],
      "min": [
        -0.9891140460968018,
        -0.9998318552970886,
        -1.0
      ],
      "type": "VEC3"
    },
    {
      "bufferView": 1,
      "byteOffset": 9880,
      "componentType": 5126,
      "count": 330,
      "max": [
        0.980824887752533,
        0.9857844114303589
      ],
      "min": [
        0.02128279209136963,
        0.018284229561686516
      ],
      "type": "VEC2"
    },
    {
      "bufferView": 0,
      "byteOffset": 23808,
      "componentType": 5125,
      "count": 1440,
      "type": "SCALAR"
    },
    {
      "bufferView": 2,
      "byteOffset": 37560,
      "componentType": 5126,
      "count": 330,
      "max": [
        1.8693586587905884,
        0.9213402271270752,
        2.9291799068450928
      ],
      "min": [
        -1.9326010942459106,
        0.32589754462242126,
        -3.2436697483062744
      ],
      "type": "VEC3"
    },
    {
      "bufferView": 2,
      "byteOffset": 41520,
      "componentType": 5126,
      "count": 330,
      "max": [
        0.9891258478164673,
        0.9989176392555237,
        1.0
      ],
      "min": [
        -0.9891273975372314,
        -0.9988278150558472,
        -1.0
      ],
      "type": "VEC3"
    },
    {
      "bufferView": 1,
      "byteOffset": 12520,
      "componentType": 5126,
      "count": 330,
      "max": [
        0.9784199595451355,
        0.9768853783607483
      ],
      "min": [
        0.03467375040054321,
        0.016938477754592896
      ],
      "type": "VEC2"
    },
    {
      "bufferView": 0,
      "byteOffset": 29568,
      "componentType": 5125,
      "count": 1440,
      "type": "SCALAR"
    },
    {
      "bufferView": 2,
      "byteOffset": 45480,
      "componentType": 5126,
      "count": 330,
      "max": [
        1.9939099550247192,
        0.8984038829803467,
        3.0166711807250977
      ],
      "min": [
        -1.8054044246673584,
        0.3232598602771759,
        -3.1321475505828857
      ],
      "type": "VEC3"
    },
    {
      "bufferView": 2,
      "byteOffset": 49440,
      "componentType": 5126,
      "count": 330,
      "max": [
        0.9891210794448853,
        0.9988172650337219,
        1.0
      ],
      "min": [
        -0.9891259670257568,
        -0.9987225532531738,
        -1.0
      ],
      "type": "VEC3"
    },
    {
      "bufferView": 1,
      "byteOffset": 15160,
      "componentType": 5126,
      "count": 330,
      "max": [
        0.9656009674072266,
        0.9835479259490967
      ],
      "min": [
        0.025006264448165894,
        0.017896324396133423
      ],
      "type": "VEC2"
    },
    {
      "bufferView": 0,
      "byteOffset": 35328,
      "componentType": 5125,
      "count": 1440,
      "type": "SCALAR"
    },
    {
      "bufferView": 2,
      "byteOffset": 53400,
      "componentType": 5126,
      "count": 330,
      "max": [
        1.8154215812683105,
        0.8707420229911804,
        3.141373634338379
      ],
      "min": [
        -2.090985059738159,
        0.30376389622688293,
        -3.046403408050537
      ],
      "type": "VEC3"
    },
    {
      "bufferView": 2,
      "byteOffset": 57360,
      "componentType": 5126,
      "count": 330,
      "max": [
        0.9891259670257568,
        0.9988173246383667,
        1.0
      ],
      "min": [
        -0.994580864906311,
        -0.9987225532531738,
        -1.0
      ],
      "type": "VEC3"
    },
    {
      "bufferView": 1,
      "byteOffset": 17800,
      "componentType": 5126,
      "count": 330,
      "max": [
        0.9706933498382568,
        0.9850451946258545
      ],
      "min": [
        0.01778954267501831,
        0.020678438246250153
      ],
      "type": "VEC2"
    },
    {
      "bufferView": 0,
      "byteOffset": 41088,
      "componentType": 5125,
      "count": 1440,
      "type": "SCALAR"
    }
  ],
  "asset": {
    "extras": {
      "author": "elouisetrewartha (https://sketchfab.com/etrewartha)",
      "license": "CC-BY-NC-4.0 (http://creativecommons.org/licenses/by-nc/4.0/)",
      "source": "https://sketchfab.com/3d-models/wallet-8001706c58a543e085b57b5ad4f1d0f2",
      "title": "Wallet"
    },
    "generator": "Sketchfab-12.66.0",
    "version": "2.0"
  },
  "bufferViews": [
    {
      "buffer": 0,
      "byteLength": 46848,
      "name": "floatBufferViews",
      "target": 34963
    },
    {
      "buffer": 0,
      "byteLength": 20440,
      "byteOffset": 46848,
      "byteStride": 8,
      "name": "floatBufferViews",
      "target": 34962
    },
    {
      "buffer": 0,
      "byteLength": 61320,
      "byteOffset": 67288,
      "byteStride": 12,
      "name": "floatBufferViews",
      "target": 34962
    }
  ],
  "buffers": [
    {
      "byteLength": 128608,
      "uri": "scene.bin"
    }
  ],
  "images": [
    {
      "uri": "textures/wallet_blinn_baseColor.png"
    },
    {
      "uri": "textures/notes_1_lambert_baseColor.png"
    },
    {
      "uri": "textures/notes_2_lambert_baseColor.png"
    },
    {
      "uri": "textures/notes_3_lambert_baseColor.png"
    },
    {
      "uri": "textures/notes_4_lambert_baseColor.png"
    }
  ],
  "materials": [
    {
      "doubleSided": true,
      "name": "wallet_blinn",
      "pbrMetallicRoughness": {
        "baseColorTexture": {
          "index": 0
        },
        "metallicFactor": 0.0,
        "roughnessFactor": 0.9207483815999999
      }
    },
    {
      "doubleSided": true,
      "name": "notes_1_lambert",
      "pbrMetallicRoughness": {
        "baseColorTexture": {
          "index": 1
        },
        "metallicFactor": 0.0,
        "roughnessFactor": 0.6
      }
    },
    {
      "doubleSided": true,
      "name": "notes_2_lambert",
      "pbrMetallicRoughness": {
        "baseColorTexture": {
          "index": 2
        },
        "metallicFactor": 0.0,
        "roughnessFactor": 0.6
      }
    },
    {
      "doubleSided": true,
      "name": "notes_3_lambert",
      "pbrMetallicRoughness": {
        "baseColorTexture": {
          "index": 3
        },
        "metallicFactor": 0.0,
        "roughnessFactor": 0.6
      }
    },
    {
      "doubleSided": true,
      "name": "notes_4_lambert",
      "pbrMetallicRoughness": {
        "baseColorTexture": {
          "index": 4
        },
        "metallicFactor": 0.0,
        "roughnessFactor": 0.6
      }
    }
  ],
  "meshes": [
    {
      "name": "wallet_combined_mesh_result_wallet_blinn_0",
      "primitives": [
        {
          "attributes": {
            "NORMAL": 1,
            "POSITION": 0,
            "TEXCOORD_0": 2
          },
          "indices": 3,
          "material": 0,
          "mode": 4
        }
      ]
    },
    {
      "name": "wallet_combined_mesh_result_notes_1_lambert_0",
      "primitives": [
        {
          "attributes": {
            "NORMAL": 5,
            "POSITION": 4,
            "TEXCOORD_0": 6
          },
          "indices": 7,
          "material": 1,
          "mode": 4
        }
      ]
    },
    {
      "name": "wallet_combined_mesh_result_notes_2_lambert_0",
      "primitives": [
        {
          "attributes": {
            "NORMAL": 9,
            "POSITION": 8,
            "TEXCOORD_0": 10
          },
          "indices": 11,
          "material": 2,
          "mode": 4
        }
      ]
    },
    {
      "name": "wallet_combined_mesh_result_notes_3_lambert_0",
      "primitives": [
        {
          "attributes": {
            "NORMAL": 13,
            "POSITION": 12,
            "TEXCOORD_0": 14
          },
          "indices": 15,
          "material": 3,
          "mode": 4
        }
      ]
    },
    {
      "name": "wallet_combined_mesh_result_notes_4_lambert_0",
      "primitives": [
        {
          "attributes": {
            "NORMAL": 17,
            "POSITION": 16,
            "TEXCOORD_0": 18
          },
          "indices": 19,
          "material": 4,
          "mode": 4
        }
      ]
    }
  ],
  "nodes": [
    {
      "children": [
        1
      ],
      "matrix": [
        1.0,
        0.0,
        0.0,
        0.0,
        0.0,
        2.220446049250313e-16,
        -1.0,
        0.0,
        0.0,
        1.0,
        2.220446049250313e-16,
        0.0,
        0.0,
        0.0,
        0.0,
        1.0
      ],
      "name": "Sketchfab_model"
    },
    {
      "children": [
        2
      ],
      "matrix": [
        1.0,
        0.0,
        0.0,
        0.0,
        0.0,
        0.0,
        1.0,
        0.0,
        0.0,
        -1.0,
        0.0,
        0.0,
        0.0,
        0.0,
        0.0,
        1.0
      ],
      "name": "b3defc756ffe4ee3926fc3c76a0a79a3.fbx"
    },
    {
      "children": [
        3
      ],
      "name": "RootNode"
    },
    {
      "children": [
        4,
        5,
        6,
        7,
        8
      ],
      "name": "wallet_combined_mesh_result"
    },
    {
      "mesh": 0,
      "name": "wallet_combined_mesh_result_wallet_blinn_0"
    },
    {
      "mesh": 1,
      "name": "wallet_combined_mesh_result_notes_1_lambert_0"
    },
    {
      "mesh": 2,
      "name": "wallet_combined_mesh_result_notes_2_lambert_0"
    },
    {
      "mesh": 3,
      "name": "wallet_combined_mesh_result_notes_3_lambert_0"
    },
    {
      "mesh": 4,
      "name": "wallet_combined_mesh_result_notes_4_lambert_0"
    }
  ],
  "samplers": [
    {
      "magFilter": 9729,
      "minFilter": 9987,
      "wrapS": 10497,
      "wrapT": 10497
    }
  ],
  "scene": 0,
  "scenes": [
    {
      "name": "Sketchfab_Scene",
      "nodes": [
        0
      ]
    }
  ],
  "textures": [
    {
      "sampler": 0,
      "source": 0
    },
    {
      "sampler": 0,
      "source": 1
    },
    {
      "sampler": 0,
      "source": 2
    },
    {
      "sampler": 0,
      "source": 3
    },
    {
      "sampler": 0,
      "source": 4
    }
  ]
}
