{
  "accessors": [
    {
      "bufferView": 2,
      "componentType": 5126,
      "count": 1637,
      "max": [
        0.5242540240287781,
        0.24328899383544922,
        0.2361460030078888
      ],
      "min": [
        -0.5242540240287781,
        -0.24219900369644165,
        -0.2361460030078888
      ],
      "type": "VEC3"
    },
    {
      "bufferView": 2,
      "byteOffset": 19644,
      "componentType": 5126,
      "count": 1637,
      "max": [
        1.0,
        1.0,
        1.0
      ],
      "min": [
        -1.0,
        -1.0,
        -1.0
      ],
      "type": "VEC3"
    },
    {
      "bufferView": 3,
      "componentType": 5126,
      "count": 1637,
      "max": [
        1.0,
        1.0,
        1.0,
        1.0
      ],
      "min": [
        -0.9998676180839539,
        -1.0,
        -1.0,
        1.0
      ],
      "type": "VEC4"
    },
    {
      "bufferView": 1,
      "componentType": 5126,
      "count": 1637,
      "max": [
        0.9486896991729736,
        0.998046875
      ],
      "min": [
        0.001953125,
        0.001953125
      ],
      "type": "VEC2"
    },
    {
      "bufferView": 0,
      "componentType": 5125,
      "count": 4719,
      "type": "SCALAR"
    },
    {
      "bufferView": 2,
      "byteOffset": 39288,
      "componentType": 5126,
      "count": 476,
      "max": [
        0.31015899777412415,
        0.3583559989929199,
        0.23999199271202087
      ],
      "min": [
        -0.31015899777412415,
        -0.008677000179886818,
        -0.004093999974429607
      ],
      "type": "VEC3"
    },
    {
      "bufferView": 2,
      "byteOffset": 45000,
      "componentType": 5126,
      "count": 476,
      "max": [
        1.0,
        1.0,
        1.0
      ],
      "min": [
        -1.0,
        -1.0,
        -1.0
      ],
      "type": "VEC3"
    },
    {
      "bufferView": 3,
      "byteOffset": 26192,
      "componentType": 5126,
      "count": 476,
      "max": [
        1.0,
        1.0,
        1.0,
        1.0
      ],
      "min": [
        -1.0,
        -1.0,
        -1.0,
        1.0
      ],
      "type": "VEC4"
    },
    {
      "bufferView": 1,
      "byteOffset": 13096,
      "componentType": 5126,
      "count": 476,
      "max": [
        0.995426595211029,
        0.23441460728645325
      ],
      "min": [
        0.13451580703258514,
        0.001953125
      ],
      "type": "VEC2"
    },
    {
      "bufferView": 0,
      "byteOffset": 18876,
      "componentType": 5125,
      "count": 1176,
      "type": "SCALAR"
    }
  ],
  "asset": {
    "extras": {
      "author": "SorajakPannarut (https://sketchfab.com/SorajakPannarut)",
      "license": "CC-BY-4.0 (http://creativecommons.org/licenses/by/4.0/)",
      "source": "https://sketchfab.com/3d-models/tool-box-9645cd0a8e084a60bc86fbfff7862c34",
      "title": "Tool box"
    },
    "generator": "Sketchfab-12.66.0",
    "version": "2.0"
  },
  "bufferViews": [
    {
      "buffer": 0,
      "byteLength": 23580,
      "name": "floatBufferViews",
      "target": 34963
    },
    {
      "buffer": 0,
      "byteLength": 16904,
      "byteOffset": 23580,
      "byteStride": 8,
      "name": "floatBufferViews",
      "target": 34962
    },
    {
      "buffer": 0,
      "byteLength": 50712,
      "byteOffset": 40484,
      "byteStride": 12,
      "name": "floatBufferViews",
      "target": 34962
    },
    {
      "buffer": 0,
      "byteLength": 33808,
      "byteOffset": 91196,
      "byteStride": 16,
      "name": "floatBufferViews",
      "target": 34962
    }
  ],
  "buffers": [
    {
      "byteLength": 125004,
      "uri": "scene.bin"
    }
  ],
  "images": [
    {
      "uri": "textures/Tool_box_polymer_baseColor.png"
    },
    {
      "uri": "textures/Tool_box_polymer_normal.png"
    },
    {
      "uri": "textures/Tool_box_plastic_baseColor.png"
    },
    {
      "uri": "textures/Tool_box_plastic_normal.png"
    }
  ],
  "materials": [
    {
      "doubleSided": true,
      "name": "Tool_box_polymer",
      "normalTexture": {
        "index": 1
      },
      "pbrMetallicRoughness": {
        "baseColorTexture": {
          "index": 0
        },
        "metallicFactor": 0.25609756097560976,
        "roughnessFactor": 0.524390243902439
      }
    },
    {
      "doubleSided": true,
      "name": "Tool_box_plastic",
      "normalTexture": {
        "index": 3
      },
      "pbrMetallicRoughness": {
        "baseColorTexture": {
          "index": 2
        },
        "metallicFactor": 0.07317073170731707,
        "roughnessFactor": 0.3719512195121951
      }
    }
  ],
  "meshes": [
    {
      "name": "Tool_box1_Tool_box_polymer_0",
      "primitives": [
        {
          "attributes": {
            "NORMAL": 1,
            "POSITION": 0,
            "TANGENT": 2,
            "TEXCOORD_0": 3
          },
          "indices": 4,
          "material": 0,
          "mode": 4
        }
      ]
    },
    {
      "name": "Tool_box1_Tool_box_plastic_0",
      "primitives": [
        {
          "attributes": {
            "NORMAL": 6,
            "POSITION": 5,
            "TANGENT": 7,
            "TEXCOORD_0": 8
          },
          "indices": 9,
          "material": 1,
          "mode": 4
        }
      ]
    }
  ],
  "nodes": [
    {
      "children": [
        1
      ],
      "matrix": [
        1.0,
        0.0,
        0.0,
        0.0,
        0.0,
        2.220446049250313e-16,
        -1.0,
        0.0,
        0.0,
        1.0,
        2.220446049250313e-16,
        0.0,
        0.0,
        0.0,
        0.0,
        1.0
      ],
      "name": "Sketchfab_model"
    },
    {
      "children": [
        2
      ],
      "matrix": [
        1.0,
        0.0,
        0.0,
        0.0,
        0.0,
        0.0,
        1.0,
        0.0,
        0.0,
        -1.0,
        0.0,
        0.0,
        0.0,
        0.0,
        0.0,
        1.0
      ],
      "name": "Tool_box.fbx"
    },
    {
      "children": [
        3
      ],
      "name": "RootNode"
    },
    {
      "children": [
        4,
        5
      ],
      "name": "Tool_box1"
    },
    {
      "mesh": 0,
      "name": "Tool_box1_Tool_box_polymer_0"
    },
    {
      "mesh": 1,
      "name": "Tool_box1_Tool_box_plastic_0"
    }
  ],
  "samplers": [
    {
      "magFilter": 9729,
      "minFilter": 9987,
      "wrapS": 10497,
      "wrapT": 10497
    }
  ],
  "scene": 0,
  "scenes": [
    {
      "name": "Sketchfab_Scene",
      "nodes": [
        0
      ]
    }
  ],
  "textures": [
    {
      "sampler": 0,
      "source": 0
    },
    {
      "sampler": 0,
      "source": 1
    },
    {
      "sampler": 0,
      "source": 2
    },
    {
      "sampler": 0,
      "source": 3
    }
  ]
}
